<svg width="28" height="28" viewBox="0 0 28 28" fill="none" xmlns="http://www.w3.org/2000/svg">
<path d="M14.0002 25.6667V7.00004C14.0002 4.79971 14.0002 3.70071 13.3165 3.01704C12.6328 2.33337 11.5338 2.33337 9.3335 2.33337H7.00016C4.79983 2.33337 3.70083 2.33337 3.01716 3.01704C2.3335 3.70071 2.3335 4.79971 2.3335 7.00004V21C2.3335 23.2004 2.3335 24.2994 3.01716 24.983C3.70083 25.6667 4.79983 25.6667 7.00016 25.6667H14.0002ZM14.0002 25.6667H21.0002C23.2005 25.6667 24.2995 25.6667 24.9832 24.983C25.6668 24.2994 25.6668 23.2004 25.6668 21V14C25.6668 11.7997 25.6668 10.7007 24.9832 10.017C24.2995 9.33337 23.2005 9.33337 21.0002 9.33337H14.0002" stroke="#7C529C" stroke-width="1.75"/>
<path d="M21.5837 18.6667H18.0837M21.5837 14H18.0837M9.91699 16.3333H6.41699M9.91699 11.6667H6.41699M9.91699 7H6.41699" stroke="#7C529C" stroke-width="1.75" stroke-linecap="round"/>
</svg>
