<svg width="33" height="33" viewBox="0 0 33 33" fill="none" xmlns="http://www.w3.org/2000/svg">
<path d="M25.9106 10.8281C25.7217 13.4494 23.7772 15.4688 21.6567 15.4688C19.5361 15.4688 17.5884 13.4501 17.4027 10.8281C17.2094 8.10111 19.1024 6.1875 21.6567 6.1875C24.2109 6.1875 26.1039 8.15074 25.9106 10.8281Z" stroke="#7C529C" stroke-width="2.0625" stroke-linecap="round" stroke-linejoin="round"/>
<path d="M21.656 19.5938C17.4556 19.5938 13.4163 21.6801 12.4044 25.7432C12.2703 26.2808 12.6074 26.8125 13.1598 26.8125H30.1528C30.7052 26.8125 31.0404 26.2808 30.9082 25.7432C29.8963 21.615 25.857 19.5938 21.656 19.5938Z" stroke="#7C529C" stroke-width="2.0625" stroke-miterlimit="10"/>
<path d="M12.8901 11.9844C12.7393 14.0779 11.1679 15.7266 9.47407 15.7266C7.78024 15.7266 6.20629 14.0785 6.05805 11.9844C5.90401 9.80654 7.43348 8.25 9.47407 8.25C11.5147 8.25 13.0441 9.8465 12.8901 11.9844Z" stroke="#7C529C" stroke-width="2.0625" stroke-linecap="round" stroke-linejoin="round"/>
<path d="M13.277 19.7227C12.1136 19.1897 10.8323 18.9847 9.47426 18.9847C6.1227 18.9847 2.8936 20.6509 2.08471 23.8961C1.97836 24.3253 2.24778 24.7501 2.68864 24.7501H9.92544" stroke="#7C529C" stroke-width="2.0625" stroke-miterlimit="10" stroke-linecap="round"/>
</svg>
