<svg width="24" height="24" viewBox="0 0 24 24" fill="none" xmlns="http://www.w3.org/2000/svg">
<path fill-rule="evenodd" clip-rule="evenodd" d="M9.88421 1.61606L9.00021 0.732056L8.11621 1.61606L0.616211 9.11606L2.38421 10.8841L9.00021 4.26806L14.6162 9.88406L15.5002 10.7681L16.3842 9.88406L20.8842 5.38406L23.0002 7.50006L23.5002 7.00006V1.00006H17.5002L17.0002 1.50006L19.1162 3.61606L15.5002 7.23206L9.88421 1.61606ZM4.25021 14.5001V23.5001H0.750211V14.5001H4.25021ZM7.08321 10.5001V23.5001H10.5832V10.5001H7.08321ZM13.4172 23.5001V16.5001H16.9172V23.5001H13.4172ZM19.7502 12.5001V23.5001H23.2502V12.5001H19.7502Z" fill="#7C529C"/>
</svg>
