<svg width="35" height="35" viewBox="0 0 35 35" fill="none" xmlns="http://www.w3.org/2000/svg">
<path d="M17.5007 3.64575L20.8184 5.97909L24.8652 5.54159L26.6517 9.18742L30.334 10.9739L29.8965 15.0208L32.2298 18.3385L29.8965 21.6562L30.334 25.703L26.6517 27.4895L24.8652 31.1353L20.8184 30.6978L17.5007 33.0312L14.1829 30.6978L10.1361 31.1353L8.34961 27.4895L4.66732 25.703L5.10482 21.6562L2.77148 18.3385L5.10482 15.0208L4.66732 10.9739L8.34961 9.18742L10.1361 5.54159L14.1829 5.97909L17.5007 3.64575Z" stroke="#16A05D" stroke-width="1.64062" stroke-linejoin="round"/>
<path d="M11.3022 16.224C11.3022 13.1251 13.8543 10.573 16.9533 10.573C20.0522 10.573 22.6043 13.1251 22.6043 16.224C22.6043 19.323 20.0522 21.8751 16.9533 21.8751C13.8543 21.8751 11.3022 19.323 11.3022 16.224Z" stroke="#16A05D" stroke-width="1.64062"/>
<path d="M16.953 13.6719L17.9009 15.6042L20.0519 15.8958L18.5207 17.3906L18.8853 19.5417L16.953 18.5208L15.0207 19.5417L15.3853 17.3906L13.854 15.8958L16.005 15.6042L16.953 13.6719Z" stroke="#16A05D" stroke-width="1.45833" stroke-linejoin="round"/>
<path d="M21.875 21.1458L25.8854 25.1562" stroke="#16A05D" stroke-width="1.64062" stroke-linecap="round"/>
</svg>
