<svg width="38" height="38" viewBox="0 0 38 38" fill="none" xmlns="http://www.w3.org/2000/svg">
<path d="M9.5 6.33325V10.6874" stroke="#FF6A00" stroke-width="1.78125" stroke-linecap="round"/>
<path d="M28.5 6.33325V10.6874" stroke="#FF6A00" stroke-width="1.78125" stroke-linecap="round"/>
<path d="M29.2915 9.10425H8.70817C6.95927 9.10425 5.5415 10.522 5.5415 12.2709V29.2917C5.5415 31.0406 6.95927 32.4584 8.70817 32.4584H29.2915C31.0404 32.4584 32.4582 31.0406 32.4582 29.2917V12.2709C32.4582 10.522 31.0404 9.10425 29.2915 9.10425Z" stroke="#FF6A00" stroke-width="1.78125"/>
<path d="M5.9375 15.4375H32.0625" stroke="#FF6A00" stroke-width="1.78125" stroke-linecap="round"/>
<path d="M13.0627 19.7917H10.6877C10.2504 19.7917 9.896 20.1462 9.896 20.5834V22.9584C9.896 23.3956 10.2504 23.7501 10.6877 23.7501H13.0627C13.4999 23.7501 13.8543 23.3956 13.8543 22.9584V20.5834C13.8543 20.1462 13.4999 19.7917 13.0627 19.7917Z" stroke="#FF6A00" stroke-width="1.50417"/>
<path d="M20.1877 19.7917H17.8127C17.3754 19.7917 17.021 20.1462 17.021 20.5834V22.9584C17.021 23.3956 17.3754 23.7501 17.8127 23.7501H20.1877C20.6249 23.7501 20.9793 23.3956 20.9793 22.9584V20.5834C20.9793 20.1462 20.6249 19.7917 20.1877 19.7917Z" stroke="#FF6A00" stroke-width="1.50417"/>
<path d="M27.3127 19.7917H24.9377C24.5004 19.7917 24.146 20.1462 24.146 20.5834V22.9584C24.146 23.3956 24.5004 23.7501 24.9377 23.7501H27.3127C27.7499 23.7501 28.1043 23.3956 28.1043 22.9584V20.5834C28.1043 20.1462 27.7499 19.7917 27.3127 19.7917Z" stroke="#FF6A00" stroke-width="1.50417"/>
<path d="M13.0627 26.125H10.6877C10.2504 26.125 9.896 26.4794 9.896 26.9167V29.2917C9.896 29.7289 10.2504 30.0833 10.6877 30.0833H13.0627C13.4999 30.0833 13.8543 29.7289 13.8543 29.2917V26.9167C13.8543 26.4794 13.4999 26.125 13.0627 26.125Z" stroke="#FF6A00" stroke-width="1.50417"/>
<path d="M20.1877 26.125H17.8127C17.3754 26.125 17.021 26.4794 17.021 26.9167V29.2917C17.021 29.7289 17.3754 30.0833 17.8127 30.0833H20.1877C20.6249 30.0833 20.9793 29.7289 20.9793 29.2917V26.9167C20.9793 26.4794 20.6249 26.125 20.1877 26.125Z" stroke="#FF6A00" stroke-width="1.50417"/>
<path d="M24.5415 28.1041L26.1248 29.6874L29.6873 25.3333" stroke="#FF6A00" stroke-width="1.58333" stroke-linecap="round" stroke-linejoin="round"/>
</svg>
