<svg width="36" height="36" viewBox="0 0 36 36" fill="none" xmlns="http://www.w3.org/2000/svg">
<path d="M33 20.25C33 22.89 31.05 25.08 28.5 25.44V30C28.5 30.7956 28.1839 31.5587 27.6213 32.1213C27.0587 32.6839 26.2956 33 25.5 33H19.8V32.55C19.8 31.4759 19.3733 30.4457 18.6138 29.6862C17.8543 28.9267 16.8241 28.5 15.75 28.5C13.5 28.5 11.7 30.315 11.7 32.55V33H6C5.20435 33 4.44129 32.6839 3.87868 32.1213C3.31607 31.5587 3 30.7956 3 30V24.3H3.45C5.685 24.3 7.5 22.5 7.5 20.25C7.5 18 5.685 16.2 3.45 16.2H3V10.5C3 9.70435 3.31607 8.94129 3.87868 8.37868C4.44129 7.81607 5.20435 7.5 6 7.5H10.56C10.92 4.95 13.11 3 15.75 3C18.39 3 20.58 4.95 20.94 7.5H25.5C26.2956 7.5 27.0587 7.81607 27.6213 8.37868C28.1839 8.94129 28.5 9.70435 28.5 10.5V15.06C31.05 15.42 33 17.61 33 20.25ZM25.5 22.5H27.75C28.3467 22.5 28.919 22.2629 29.341 21.841C29.7629 21.419 30 20.8467 30 20.25C30 19.6533 29.7629 19.081 29.341 18.659C28.919 18.2371 28.3467 18 27.75 18H25.5V10.5H18V8.25C18 7.65326 17.7629 7.08097 17.341 6.65901C16.919 6.23705 16.3467 6 15.75 6C15.1533 6 14.581 6.23705 14.159 6.65901C13.7371 7.08097 13.5 7.65326 13.5 8.25V10.5H6V13.68C8.64 14.7 10.5 17.25 10.5 20.25C10.5 23.25 8.625 25.8 6 26.82V30H9.18C9.694 28.6752 10.5964 27.5366 11.7688 26.7335C12.9412 25.9305 14.3289 25.5005 15.75 25.5C18.75 25.5 21.3 27.375 22.32 30H25.5V22.5Z" fill="#7A45D8"/>
</svg>
