<svg width="40" height="40" viewBox="0 0 40 40" fill="none" xmlns="http://www.w3.org/2000/svg">
<path d="M15 19.5833C17.7614 19.5833 20 17.3447 20 14.5833C20 11.8218 17.7614 9.58325 15 9.58325C12.2386 9.58325 10 11.8218 10 14.5833C10 17.3447 12.2386 19.5833 15 19.5833Z" stroke="#13A7C7" stroke-width="1.875"/>
<path d="M7.0835 32.0833C7.0835 26.9999 10.6252 23.3333 15.0002 23.3333C19.3752 23.3333 22.9168 26.9999 22.9168 32.0833" stroke="#13A7C7" stroke-width="1.875" stroke-linecap="round"/>
<path d="M26.6667 21.2501C28.9679 21.2501 30.8333 19.3846 30.8333 17.0834C30.8333 14.7822 28.9679 12.9167 26.6667 12.9167C24.3655 12.9167 22.5 14.7822 22.5 17.0834C22.5 19.3846 24.3655 21.2501 26.6667 21.2501Z" stroke="#13A7C7" stroke-width="1.875"/>
<path d="M22.9165 25.6251C24.0832 24.6667 25.4582 24.1667 26.9582 24.1667C30.7498 24.1667 33.7498 27.4167 33.7498 31.8751" stroke="#13A7C7" stroke-width="1.875" stroke-linecap="round"/>
<path d="M22.5 10.8334C23.8333 9.91671 25.375 9.45838 27 9.62505C29.6667 9.87505 31.7917 12 32.0833 14.6667" stroke="#13A7C7" stroke-width="1.875" stroke-linecap="round"/>
</svg>
