<svg width="45" height="45" viewBox="0 0 45 45" fill="none" xmlns="http://www.w3.org/2000/svg">
<path d="M8.4375 25.7812H14.5312L30.4688 33.2812V11.7188L14.5312 19.2188H8.4375C6.89063 19.2188 5.625 20.4844 5.625 22.0312V22.9688C5.625 24.5156 6.89063 25.7812 8.4375 25.7812Z" stroke="#0B45C7" stroke-width="2.10938" stroke-linejoin="round"/>
<path d="M14.5312 25.7812L17.8125 36.5625C18.1406 37.6406 19.125 38.4375 20.2969 38.4375H22.9688L19.2188 27.1875" stroke="#0B45C7" stroke-width="2.10938" stroke-linejoin="round"/>
<path d="M35.1562 17.8125C37.0312 18.9844 38.2031 20.6719 38.2031 22.5C38.2031 24.3281 37.0312 26.0156 35.1562 27.1875" stroke="#0B45C7" stroke-width="2.10938" stroke-linecap="round"/>
<path d="M38.4375 12.6562C41.4844 15.0937 43.125 18.4687 43.125 22.5C43.125 26.5313 41.4844 29.9063 38.4375 32.3438" stroke="#0B45C7" stroke-width="2.10938" stroke-linecap="round"/>
</svg>
