<svg width="30" height="30" viewBox="0 0 30 30" fill="none" xmlns="http://www.w3.org/2000/svg">
<path d="M27.1376 10.8874C28.7001 9.32485 27.9876 7.49985 27.1376 6.61235L23.3876 2.86235C21.8126 1.29985 20.0001 2.01235 19.1126 2.86235L16.9876 4.99985H13.7501C11.3751 4.99985 10.0001 6.24985 9.30009 7.68735L3.75009 13.2374V18.2374L2.86259 19.1124C1.30009 20.6874 2.01259 22.4998 2.86259 23.3874L6.61259 27.1374C7.28759 27.8123 8.01259 28.0624 8.70009 28.0624C9.58759 28.0624 10.4001 27.6248 10.8876 27.1374L14.2626 23.7499H18.7501C20.8751 23.7499 21.9501 22.4249 22.3376 21.1249C23.7501 20.7498 24.5251 19.6749 24.8376 18.6249C26.7751 18.1248 27.5001 16.2874 27.5001 14.9999V11.2499H26.7626L27.1376 10.8874ZM25.0001 14.9999C25.0001 15.5624 24.7626 16.2499 23.7501 16.2499H22.5001V17.4999C22.5001 18.0624 22.2626 18.7499 21.2501 18.7499H20.0001V19.9999C20.0001 20.5624 19.7626 21.2499 18.7501 21.2499H13.2376L9.13759 25.3499C8.75009 25.7124 8.52509 25.4999 8.38759 25.3624L4.65009 21.6374C4.28759 21.2498 4.50009 21.0248 4.63759 20.8874L6.25009 19.2624V14.2624L8.75009 11.7624V13.7499C8.75009 15.2624 9.75009 17.4999 12.5001 17.4999C15.2501 17.4999 16.2501 15.2624 16.2501 13.7499H25.0001V14.9999ZM25.3626 9.11235L23.2376 11.2499H13.7501V13.7499C13.7501 14.3124 13.5126 14.9999 12.5001 14.9999C11.4876 14.9999 11.2501 14.3124 11.2501 13.7499V9.99985C11.2501 9.42485 11.4626 7.49985 13.7501 7.49985H18.0126L20.8626 4.64985C21.2501 4.28735 21.4751 4.49985 21.6126 4.63735L25.3501 8.36235C25.7126 8.74985 25.5001 8.97485 25.3626 9.11235Z" fill="#FD226A"/>
</svg>
