<svg width="26" height="26" viewBox="0 0 26 26" fill="none" xmlns="http://www.w3.org/2000/svg">
<path fill-rule="evenodd" clip-rule="evenodd" d="M20.9968 0.975434C20.4833 0.0361836 19.1341 0.0361836 18.6206 0.975434L17.5388 2.95414C17.3154 3.36331 16.9793 3.6998 16.5703 3.92373L14.5922 5.00598C13.6535 5.51948 13.6535 6.86823 14.5922 7.38173L16.5703 8.46452C16.9792 8.68829 17.3153 9.0246 17.5388 9.43356L18.6206 11.4123C19.1341 12.3515 20.4839 12.3515 20.9968 11.4123L22.0786 9.43356C22.302 9.02439 22.6381 8.6879 23.0471 8.46398L25.0252 7.38173C25.9639 6.86823 25.9639 5.52002 25.0252 5.00598L23.0471 3.92373C22.6381 3.6998 22.302 3.36331 22.0786 2.95414L20.9968 0.975434ZM5.47701 22.043C5.18714 21.8908 4.9305 21.6824 4.72208 21.4299C4.51367 21.1774 4.35765 20.8859 4.26314 20.5724C4.10608 20.0626 3.9598 19.5495 3.82439 19.0335C2.70947 18.0911 1.81379 16.9166 1.19994 15.5921C0.586099 14.2676 0.2689 12.825 0.270514 11.3651C0.270514 5.81793 4.76472 1.31993 10.3103 1.31993C10.9267 1.31993 11.5318 1.37573 12.1189 1.48243C12.4016 1.53394 12.6523 1.69564 12.8158 1.93197C12.9793 2.1683 13.0422 2.4599 12.9907 2.74262C12.9392 3.02534 12.7775 3.27602 12.5412 3.43952C12.3049 3.60302 12.0133 3.66594 11.7306 3.61443C11.262 3.52914 10.7866 3.48636 10.3103 3.4866C5.96289 3.4866 2.43718 7.01285 2.43718 11.3651C2.43594 12.5604 2.70717 13.7403 3.23024 14.8151C3.75331 15.8898 4.51447 16.8312 5.45589 17.5678C5.64579 17.717 5.78039 17.9254 5.8383 18.1598C5.98765 18.7564 6.1531 19.3488 6.33447 19.9365C6.37726 20.0762 6.47097 20.1336 6.55655 20.1423C7.24772 20.2149 8.44751 20.2978 10.3103 20.2978C12.1731 20.2978 13.3729 20.2149 14.0641 20.1423C14.1496 20.1336 14.2433 20.0757 14.2861 19.9365C14.4678 19.3489 14.6332 18.7565 14.7823 18.1598C14.8402 17.9254 14.9748 17.717 15.1647 17.5678C16.0946 16.8385 16.8492 15.9101 17.3731 14.8508C17.5031 14.5979 17.7272 14.4063 17.9972 14.3173C18.2672 14.2282 18.5614 14.2489 18.8163 14.3747C19.0712 14.5006 19.2664 14.7217 19.3598 14.9902C19.4532 15.2587 19.4373 15.5532 19.3155 15.8101C18.7048 17.0454 17.8472 18.1423 16.7957 19.033C16.6604 19.549 16.5143 20.062 16.3575 20.5719C16.1686 21.1963 15.7404 21.7207 15.1663 22.0306L15.0434 23.1664C14.9161 24.3402 14.0749 25.4051 12.7868 25.5741C11.9572 25.6792 11.1216 25.7307 10.2854 25.7285C9.21668 25.7285 8.38793 25.6516 7.7791 25.5595C6.65785 25.39 5.92064 24.4989 5.73322 23.5001C5.64213 23.0155 5.5569 22.5297 5.47756 22.043" fill="#FD226A"/>
</svg>
