<svg width="26" height="26" viewBox="0 0 26 26" fill="none" xmlns="http://www.w3.org/2000/svg">
<path d="M11.7706 6.8714C11.643 6.50879 11.406 6.19473 11.0923 5.97252C10.7786 5.75032 10.4037 5.63093 10.0193 5.63082H8.58005C8.17174 5.63197 7.77821 5.7837 7.47482 6.05696C7.17143 6.33021 6.9795 6.70578 6.9358 7.11174C6.8921 7.51771 6.99969 7.92552 7.23798 8.25709C7.47626 8.58865 7.82848 8.82066 8.22719 8.90868L10.4149 9.38782C10.8626 9.48553 11.2583 9.74526 11.526 10.1171C11.7937 10.4889 11.9146 10.9466 11.8652 11.4021C11.8159 11.8576 11.6 12.2789 11.2589 12.5848C10.9178 12.8907 10.4757 13.0597 10.0175 13.0594H8.77876C8.3948 13.0596 8.02023 12.9407 7.70661 12.7192C7.39298 12.4977 7.15572 12.1844 7.02748 11.8225M9.4009 5.63082V3.77368M9.4009 14.9165V13.0594M12.9425 25.0695V15.3195C12.9425 14.7039 13.1871 14.1134 13.6224 13.678C14.0578 13.2427 14.6482 12.9981 15.2639 12.9981C15.8796 12.9981 16.47 13.2427 16.9054 13.678C17.3408 14.1134 17.5853 14.7039 17.5853 15.3195V20.4267H21.2996C22.2847 20.4267 23.2295 20.818 23.926 21.5146C24.6226 22.2111 25.0139 23.1559 25.0139 24.141V25.0695" stroke="#FD226A" stroke-width="1.85714" stroke-linecap="round" stroke-linejoin="round"/>
<path d="M9.40282 17.7616C7.68938 17.7613 6.01684 17.238 4.60883 16.2616C3.20081 15.2852 2.12443 13.9022 1.52358 12.2976C0.92274 10.6929 0.826077 8.94312 1.24652 7.28206C1.66696 5.62101 2.58447 4.12788 3.87637 3.00233C5.16827 1.87677 6.77299 1.17243 8.47598 0.983463C10.179 0.794501 11.8991 1.12993 13.4063 1.9449C14.9135 2.75986 16.136 4.01553 16.9104 5.54402C17.6847 7.0725 17.974 8.80095 17.7395 10.4983" stroke="#FD226A" stroke-width="1.85714" stroke-linecap="round"/>
</svg>
