<svg width="79" height="79" viewBox="0 0 79 79" fill="none" xmlns="http://www.w3.org/2000/svg">
<path d="M7.3833 39.3792C7.3833 21.7077 21.7075 7.38354 39.3789 7.38354C57.0504 7.38354 71.3746 21.7077 71.3746 39.3792C71.3746 57.0506 57.0504 71.3748 39.3789 71.3748C21.7075 71.3748 7.3833 57.0506 7.3833 39.3792ZM27.0729 24.612C27.0729 25.9705 28.1755 27.0732 29.5341 27.0732H34.4565C36.4255 27.0732 37.7775 27.8608 38.6898 28.9995C39.1952 29.6328 39.589 30.4106 39.8449 31.2638H29.5341C28.8814 31.2638 28.2554 31.5231 27.7938 31.9846C27.3322 32.4462 27.0729 33.0722 27.0729 33.725C27.0729 34.3777 27.3322 35.0037 27.7938 35.4653C28.2554 35.9269 28.8814 36.1862 29.5341 36.1862H39.8449C39.6119 37.0113 39.2195 37.7828 38.6898 38.457C37.7775 39.5958 36.4255 40.3833 34.4565 40.3833H29.5341C29.0523 40.3836 28.5811 40.5253 28.179 40.7908C27.7769 41.0564 27.4616 41.4341 27.2722 41.8772C27.0829 42.3203 27.0277 42.8092 27.1136 43.2833C27.1995 43.7575 27.4227 44.196 27.7555 44.5444L41.7023 59.1279C42.1577 59.5793 42.7713 59.8351 43.4125 59.8409C44.0537 59.8468 44.6719 59.6022 45.1354 59.1591C45.599 58.7161 45.8713 58.1096 45.8945 57.4688C45.9177 56.8281 45.6899 56.2035 45.2596 55.7281L35.2671 45.2762C36.6743 45.2026 38.0498 44.8306 39.3023 44.1851C40.5549 43.5396 41.656 42.6352 42.5326 41.5319C43.7502 39.9737 44.563 38.1383 44.8986 36.1895H49.2237C49.8765 36.1895 50.5025 35.9302 50.9641 35.4686C51.4256 35.007 51.6849 34.381 51.6849 33.7283C51.6849 33.0755 51.4256 32.4495 50.9641 31.9879C50.5025 31.5264 49.8765 31.2671 49.2237 31.2671H44.8986C44.6351 29.7863 44.1059 28.3655 43.3365 27.0732H49.2237C49.8765 27.0732 50.5025 26.8139 50.9641 26.3523C51.4256 25.8907 51.6849 25.2647 51.6849 24.612C51.6849 23.9592 51.4256 23.3332 50.9641 22.8716C50.5025 22.4101 49.8765 22.1508 49.2237 22.1508H29.5341C28.8814 22.1508 28.2554 22.4101 27.7938 22.8716C27.3322 23.3332 27.0729 23.9592 27.0729 24.612Z" fill="#FD226A"/>
</svg>
