<svg width="64" height="64" viewBox="0 0 64 64" fill="none" xmlns="http://www.w3.org/2000/svg">
<path fill-rule="evenodd" clip-rule="evenodd" d="M19.6922 29.5385C20.9979 29.5385 22.2501 29.0198 23.1734 28.0965C24.0966 27.1733 24.6153 25.9211 24.6153 24.6154C24.6153 23.3097 24.0966 22.0575 23.1734 21.1342C22.2501 20.211 20.9979 19.6923 19.6922 19.6923C18.3866 19.6923 17.1343 20.211 16.2111 21.1342C15.2878 22.0575 14.7692 23.3097 14.7692 24.6154C14.7692 25.9211 15.2878 27.1733 16.2111 28.0965C17.1343 29.0198 18.3866 29.5385 19.6922 29.5385ZM19.6922 32C21.6508 32 23.5291 31.222 24.9139 29.8371C26.2988 28.4522 27.0768 26.5739 27.0768 24.6154C27.0768 22.6569 26.2988 20.7786 24.9139 19.3937C23.5291 18.0088 21.6508 17.2308 19.6922 17.2308C17.7337 17.2308 15.8554 18.0088 14.4705 19.3937C13.0856 20.7786 12.3076 22.6569 12.3076 24.6154C12.3076 26.5739 13.0856 28.4522 14.4705 29.8371C15.8554 31.222 17.7337 32 19.6922 32Z" fill="#FD226A"/>
<path fill-rule="evenodd" clip-rule="evenodd" d="M16.8716 29.2824C16.9862 29.3967 17.0772 29.5326 17.1392 29.6821C17.2013 29.8316 17.2332 29.9919 17.2332 30.1538C17.2332 30.3157 17.2013 30.476 17.1392 30.6255C17.0772 30.775 16.9862 30.9109 16.8716 31.0252L16.0396 31.8547C14.4385 33.4563 13.5389 35.6282 13.5387 37.8929V42.4615C13.5387 42.7879 13.409 43.101 13.1782 43.3318C12.9474 43.5626 12.6343 43.6923 12.3079 43.6923C11.9815 43.6923 11.6684 43.5626 11.4376 43.3318C11.2068 43.101 11.0771 42.7879 11.0771 42.4615V37.8929C11.0775 34.9754 12.2365 32.1775 14.2993 30.1144L15.1288 29.2824C15.2432 29.1678 15.379 29.0769 15.5285 29.0148C15.678 28.9528 15.8383 28.9208 16.0002 28.9208C16.1621 28.9208 16.3224 28.9528 16.4719 29.0148C16.6215 29.0769 16.7573 29.1678 16.8716 29.2824ZM45.8981 28.544C45.7835 28.6583 45.6925 28.7941 45.6305 28.9436C45.5684 29.0932 45.5365 29.2535 45.5365 29.4153C45.5365 29.5772 45.5684 29.7375 45.6305 29.8871C45.6925 30.0366 45.7835 30.1724 45.8981 30.2867L46.7301 31.1163C48.3312 32.7179 49.2308 34.8897 49.231 37.1544V42.4615C49.231 42.7879 49.3607 43.101 49.5915 43.3318C49.8223 43.5626 50.1353 43.6923 50.4618 43.6923C50.7882 43.6923 51.1012 43.5626 51.3321 43.3318C51.5629 43.101 51.6925 42.7879 51.6925 42.4615V37.1544C51.6922 34.237 50.5332 31.4391 48.4704 29.376L47.6408 28.544C47.5265 28.4293 47.3907 28.3384 47.2412 28.2764C47.0916 28.2143 46.9313 28.1824 46.7695 28.1824C46.6076 28.1824 46.4473 28.2143 46.2977 28.2764C46.1482 28.3384 46.0124 28.4293 45.8981 28.544Z" fill="#FD226A"/>
<path fill-rule="evenodd" clip-rule="evenodd" d="M41.8461 29.5385C40.5404 29.5385 39.2882 29.0198 38.365 28.0965C37.4417 27.1733 36.923 25.9211 36.923 24.6154C36.923 23.3097 37.4417 22.0575 38.365 21.1342C39.2882 20.211 40.5404 19.6923 41.8461 19.6923C43.1518 19.6923 44.404 20.211 45.3273 21.1342C46.2505 22.0575 46.7692 23.3097 46.7692 24.6154C46.7692 25.9211 46.2505 27.1733 45.3273 28.0965C44.404 29.0198 43.1518 29.5385 41.8461 29.5385ZM41.8461 32C39.8876 32 38.0093 31.222 36.6244 29.8371C35.2395 28.4522 34.4615 26.5739 34.4615 24.6154C34.4615 22.6569 35.2395 20.7786 36.6244 19.3937C38.0093 18.0088 39.8876 17.2308 41.8461 17.2308C43.8046 17.2308 45.6829 18.0088 47.0678 19.3937C48.4527 20.7786 49.2307 22.6569 49.2307 24.6154C49.2307 26.5739 48.4527 28.4522 47.0678 29.8371C45.6829 31.222 43.8046 32 41.8461 32ZM30.7692 40C29.1371 40 27.5718 40.6484 26.4178 41.8024C25.2637 42.9565 24.6153 44.5218 24.6153 46.1539V49.3539C24.6153 49.6803 24.4857 49.9933 24.2549 50.2241C24.0241 50.455 23.711 50.5846 23.3846 50.5846C23.0582 50.5846 22.7451 50.455 22.5143 50.2241C22.2835 49.9933 22.1538 49.6803 22.1538 49.3539V46.1539C22.1538 43.8689 23.0615 41.6776 24.6772 40.0619C26.2929 38.4462 28.4843 37.5385 30.7692 37.5385C33.0541 37.5385 35.2455 38.4462 36.8612 40.0619C38.4769 41.6776 39.3846 43.8689 39.3846 46.1539V49.3539C39.3846 49.6803 39.2549 49.9933 39.0241 50.2241C38.7933 50.455 38.4802 50.5846 38.1538 50.5846C37.8274 50.5846 37.5143 50.455 37.2835 50.2241C37.0527 49.9933 36.923 49.6803 36.923 49.3539V46.1539C36.923 44.5218 36.2747 42.9565 35.1206 41.8024C33.9665 40.6484 32.4013 40 30.7692 40Z" fill="#FD226A"/>
<path fill-rule="evenodd" clip-rule="evenodd" d="M30.7694 36.3077C32.0751 36.3077 33.3273 35.789 34.2505 34.8658C35.1738 33.9425 35.6925 32.6903 35.6925 31.3846C35.6925 30.0789 35.1738 28.8267 34.2505 27.9035C33.3273 26.9802 32.0751 26.4615 30.7694 26.4615C29.4637 26.4615 28.2115 26.9802 27.2882 27.9035C26.365 28.8267 25.8463 30.0789 25.8463 31.3846C25.8463 32.6903 26.365 33.9425 27.2882 34.8658C28.2115 35.789 29.4637 36.3077 30.7694 36.3077ZM30.7694 38.7692C32.7279 38.7692 34.6062 37.9912 35.9911 36.6063C37.376 35.2214 38.154 33.3431 38.154 31.3846C38.154 29.4261 37.376 27.5478 35.9911 26.1629C34.6062 24.778 32.7279 24 30.7694 24C28.8109 24 26.9326 24.778 25.5477 26.1629C24.1628 27.5478 23.3848 29.4261 23.3848 31.3846C23.3848 33.3431 24.1628 35.2214 25.5477 36.6063C26.9326 37.9912 28.8109 38.7692 30.7694 38.7692Z" fill="#FD226A"/>
<path fill-rule="evenodd" clip-rule="evenodd" d="M31.9997 60.3077C47.6329 60.3077 60.3074 47.6332 60.3074 32C60.3074 16.3668 47.6329 3.69231 31.9997 3.69231C16.3665 3.69231 3.69201 16.3668 3.69201 32C3.69201 47.6332 16.3665 60.3077 31.9997 60.3077ZM31.9997 62.7692C48.9942 62.7692 62.7689 48.9945 62.7689 32C62.7689 15.0055 48.9942 1.23077 31.9997 1.23077C15.0052 1.23077 1.23047 15.0055 1.23047 32C1.23047 48.9945 15.0052 62.7692 31.9997 62.7692Z" fill="#FD226A"/>
</svg>
