<svg width="51" height="51" viewBox="0 0 51 51" fill="none" xmlns="http://www.w3.org/2000/svg">
<path fill-rule="evenodd" clip-rule="evenodd" d="M37.617 1.02005C37.8073 0.714356 38.084 0.471949 38.4121 0.323467C38.7402 0.174985 39.105 0.127091 39.4603 0.185838L48.826 1.74862C49.3022 1.82805 49.7274 2.09329 50.0082 2.48606C50.2889 2.87883 50.4023 3.36699 50.3233 3.84327L48.7641 13.2127C48.7046 13.5679 48.5412 13.8974 48.2944 14.1597C48.0477 14.422 47.7287 14.6053 47.3779 14.6864C47.027 14.7675 46.66 14.7428 46.3231 14.6153C45.9863 14.4879 45.6949 14.2635 45.4855 13.9704L42.9574 10.4368L29.9378 18.7571C29.3826 19.1124 28.7177 19.255 28.0656 19.1586C27.4136 19.0622 26.8183 18.7333 26.3897 18.2326L19.1295 9.7447L5.55254 16.7208C4.90812 17.0522 4.15845 17.114 3.46845 16.8926C2.77845 16.6713 2.20464 16.1849 1.87325 15.5405C1.54187 14.8961 1.48004 14.1464 1.70139 13.4564C1.92274 12.7664 2.40912 12.1926 3.05354 11.8612L18.5539 3.89427C19.1011 3.61313 19.7272 3.52492 20.3309 3.64393C20.9345 3.76293 21.4802 4.08218 21.8798 4.54998L28.998 12.8739L39.7808 5.98162L37.6789 3.04184C37.4699 2.74868 37.3525 2.40018 37.3415 2.04033C37.3305 1.68049 37.4263 1.32545 37.617 1.02005ZM13.7708 18.9065L3.19925 24.9536C2.78162 25.1922 2.43437 25.5368 2.19258 25.9525C1.9508 26.3683 1.82305 26.8405 1.82225 27.3215V48.2679C1.82225 49.7761 3.04625 51.0001 4.5544 51.0001H13.7708V18.9065ZM18.3244 51.0001H31.6864V26.1849L25.6793 29.1866L19.6759 18.6806C19.372 18.1469 18.8972 17.7311 18.328 17.5003L18.3244 51.0001ZM46.4473 51.0001H36.24V23.9081L45.2269 19.4128C45.6434 19.2049 46.1062 19.1068 46.5713 19.128C47.0364 19.1491 47.4883 19.2887 47.8843 19.5336C48.2803 19.7785 48.6071 20.1205 48.8337 20.5271C49.0604 20.9338 49.1794 21.3916 49.1794 21.8572V48.2679C49.1794 48.9925 48.8915 49.6875 48.3792 50.1998C47.8668 50.7122 47.1719 51.0001 46.4473 51.0001Z" fill="#FD226A"/>
</svg>
