<svg width="65" height="65" viewBox="0 0 65 65" fill="none" xmlns="http://www.w3.org/2000/svg">
<path fill-rule="evenodd" clip-rule="evenodd" d="M45.6672 32.32L44.7497 32.905C43.0948 33.9582 41.0931 34.3212 39.1737 33.916C37.2544 33.5108 35.5702 32.3698 34.4822 30.7375L32.4997 27.7625L30.5172 30.7375C29.4292 32.3698 27.745 33.5108 25.8256 33.916C23.9063 34.3212 21.9046 33.9582 20.2497 32.905L19.3322 32.32L21.3547 40H43.6447L45.6672 32.32ZM16.6347 24.675C14.7147 23.455 12.2947 25.2225 12.8747 27.4225L17.0097 43.1375C17.1503 43.6709 17.4635 44.1428 17.9003 44.4797C18.3371 44.8166 18.873 44.9995 19.4247 45H45.5697C46.1217 45.0001 46.6583 44.8174 47.0956 44.4804C47.5329 44.1435 47.8464 43.6713 47.9872 43.1375L52.1222 27.4225C52.7022 25.2225 50.2822 23.455 48.3622 24.675L42.0622 28.685C41.5105 29.0361 40.8433 29.1571 40.2035 29.022C39.5637 28.887 39.0023 28.5066 38.6397 27.9625L34.5772 21.87C34.3489 21.5276 34.0396 21.2469 33.6767 21.0527C33.3139 20.8586 32.9087 20.757 32.4972 20.757C32.0856 20.757 31.6805 20.8586 31.3176 21.0527C30.9548 21.2469 30.6455 21.5276 30.4172 21.87L26.3547 27.9625C25.9924 28.507 25.4312 28.8879 24.7914 29.0234C24.1516 29.1589 23.4841 29.0384 22.9322 28.6875L16.6347 24.675Z" fill="#FD226A"/>
<path d="M35 16.25C35 16.913 34.7366 17.5489 34.2678 18.0178C33.7989 18.4866 33.163 18.75 32.5 18.75C31.837 18.75 31.2011 18.4866 30.7322 18.0178C30.2634 17.5489 30 16.913 30 16.25C30 15.587 30.2634 14.9511 30.7322 14.4822C31.2011 14.0134 31.837 13.75 32.5 13.75C33.163 13.75 33.7989 14.0134 34.2678 14.4822C34.7366 14.9511 35 15.587 35 16.25ZM55 21.25C55 21.913 54.7366 22.5489 54.2678 23.0178C53.7989 23.4866 53.163 23.75 52.5 23.75C51.837 23.75 51.2011 23.4866 50.7322 23.0178C50.2634 22.5489 50 21.913 50 21.25C50 20.587 50.2634 19.9511 50.7322 19.4822C51.2011 19.0134 51.837 18.75 52.5 18.75C53.163 18.75 53.7989 19.0134 54.2678 19.4822C54.7366 19.9511 55 20.587 55 21.25ZM15 21.25C15 21.913 14.7366 22.5489 14.2678 23.0178C13.7989 23.4866 13.163 23.75 12.5 23.75C11.837 23.75 11.2011 23.4866 10.7322 23.0178C10.2634 22.5489 10 21.913 10 21.25C10 20.587 10.2634 19.9511 10.7322 19.4822C11.2011 19.0134 11.837 18.75 12.5 18.75C13.163 18.75 13.7989 19.0134 14.2678 19.4822C14.7366 19.9511 15 20.587 15 21.25Z" fill="#FD226A"/>
<path fill-rule="evenodd" clip-rule="evenodd" d="M18.75 48.125C18.75 47.462 19.0134 46.8261 19.4822 46.3572C19.9511 45.8884 20.587 45.625 21.25 45.625H44.3775C45.0405 45.625 45.6764 45.8884 46.1453 46.3572C46.6141 46.8261 46.8775 47.462 46.8775 48.125C46.8775 48.788 46.6141 49.4239 46.1453 49.8928C45.6764 50.3616 45.0405 50.625 44.3775 50.625H21.25C20.587 50.625 19.9511 50.3616 19.4822 49.8928C19.0134 49.4239 18.75 48.788 18.75 48.125Z" fill="#FD226A"/>
<path fill-rule="evenodd" clip-rule="evenodd" d="M32.5 60C47.6875 60 60 47.6875 60 32.5C60 17.3125 47.6875 5 32.5 5C17.3125 5 5 17.3125 5 32.5C5 47.6875 17.3125 60 32.5 60ZM32.5 65C50.45 65 65 50.45 65 32.5C65 14.55 50.45 0 32.5 0C14.55 0 0 14.55 0 32.5C0 50.45 14.55 65 32.5 65Z" fill="#FD226A"/>
</svg>
