<svg width="57" height="57" viewBox="0 0 57 57" fill="none" xmlns="http://www.w3.org/2000/svg">
<path d="M9.04386 9.4384H19.6384L23.0527 17.9754L17.5667 21.6327C17.2436 21.8483 16.9787 22.1402 16.7956 22.4827C16.6124 22.8251 16.5166 23.2075 16.5167 23.5959C16.5237 23.8177 16.5167 23.5982 16.5167 23.5982V23.6478C16.5178 23.7533 16.5226 23.8588 16.5308 23.964C16.5434 24.159 16.5709 24.4186 16.6134 24.7426C16.7054 25.3797 16.8824 26.2575 17.2269 27.291C17.9206 29.3674 19.2797 32.055 21.9272 34.7024C24.5746 37.3499 27.2622 38.709 29.3363 39.4027C30.3721 39.7472 31.2475 39.9218 31.8893 40.0162C32.2513 40.0688 32.6161 40.1003 32.9818 40.1106L33.0125 40.1129H33.0314C33.0314 40.1129 33.2956 40.0988 33.0337 40.1129C33.4718 40.1127 33.9012 39.9905 34.2737 39.7601C34.6463 39.5296 34.9474 39.2 35.1432 38.8081L36.7241 35.6463L47.1912 37.3924V47.5857C42.2101 48.3054 28.7558 49.0156 18.1849 38.4447C7.61395 27.8738 8.32183 14.4171 9.04386 9.4384ZM21.4081 24.7426L25.6718 21.9017C26.5726 21.3009 27.2393 20.4086 27.5603 19.3745C27.8812 18.3404 27.8368 17.2274 27.4344 16.2222L24.0201 7.68523C23.6697 6.8096 23.065 6.05904 22.284 5.53037C21.503 5.0017 20.5815 4.71918 19.6384 4.71924H8.92116C6.7763 4.71924 4.75886 6.20813 4.40728 8.53468C3.60503 13.8249 2.51726 29.45 14.8484 41.7812C27.1796 54.1123 42.8047 53.0222 48.0949 52.2223C50.4215 51.8684 51.9104 49.8533 51.9104 47.7084V37.3924C51.9105 36.2752 51.5143 35.1943 50.7924 34.3418C50.0704 33.4894 49.0694 32.9207 47.9675 32.7369L37.5004 30.9932C36.5049 30.827 35.4823 30.9844 34.5828 31.4422C33.6833 31.9 32.9543 32.6341 32.5028 33.5368L31.6864 35.172C31.3979 35.1002 31.1122 35.0176 30.8299 34.9242C29.3669 34.4382 27.3353 33.4377 25.2636 31.366C23.1919 29.2943 22.1914 27.2627 21.7054 25.7974C21.5908 25.4506 21.4924 25.0986 21.4104 24.7426H21.4081Z" fill="#FD226A"/>
</svg>
