<svg width="57" height="57" viewBox="0 0 57 57" fill="none" xmlns="http://www.w3.org/2000/svg">
<path d="M20.6928 36.3072C17.6772 33.2916 13.7348 31.3783 9.5 30.875C10.7103 28.7757 12.4359 27.0197 14.5138 25.773C16.5916 24.5262 18.9531 23.83 21.375 23.75C22.7779 19.7621 25.3318 16.2798 28.7137 13.7433C32.0957 11.2068 36.1538 9.73016 40.375 9.5C42.2647 9.5 44.0769 10.2507 45.4131 11.5869C46.7493 12.9231 47.5 14.7353 47.5 16.625C47.2698 20.8462 45.7932 24.9043 43.2567 28.2863C40.7202 31.6682 37.2379 34.2221 33.25 35.625C33.17 38.0469 32.4738 40.4083 31.227 42.4862C29.9803 44.5641 28.2243 46.2897 26.125 47.5C25.6217 43.2652 23.7084 39.3228 20.6928 36.3072Z" stroke="white" stroke-width="4.75" stroke-linecap="round" stroke-linejoin="round"/>
<path d="M16.6248 33.25C14.153 34.6455 12.1542 36.7474 10.8848 39.2862C9.61536 41.8251 9.13309 44.6852 9.4998 47.5C12.3146 47.8667 15.1747 47.3844 17.7136 46.115C20.2524 44.8456 22.3543 42.8468 23.7498 40.375M33.2498 21.375C33.2498 22.0049 33.5 22.609 33.9454 23.0544C34.3908 23.4998 34.9949 23.75 35.6248 23.75C36.2547 23.75 36.8588 23.4998 37.3042 23.0544C37.7496 22.609 37.9998 22.0049 37.9998 21.375C37.9998 20.7451 37.7496 20.141 37.3042 19.6956C36.8588 19.2502 36.2547 19 35.6248 19C34.9949 19 34.3908 19.2502 33.9454 19.6956C33.5 20.141 33.2498 20.7451 33.2498 21.375Z" stroke="white" stroke-width="4.75" stroke-linecap="round" stroke-linejoin="round"/>
</svg>
