<svg width="54" height="54" viewBox="0 0 54 54" fill="none" xmlns="http://www.w3.org/2000/svg">
<path d="M27.6584 8.13233C27.4565 8.13197 27.2571 8.1769 27.0749 8.26381C26.8926 8.35072 26.7322 8.4774 26.6054 8.63453L26.3651 8.81273C21.7076 7.37093 16.394 8.42933 12.695 11.9933C11.1456 13.4629 9.99294 15.3004 9.34432 17.335C8.69571 19.3696 8.57217 21.5352 8.9852 23.6303L8.8502 23.7545L6.7469 25.7795C6.34003 26.1655 6.01602 26.6303 5.7946 27.1455C5.57317 27.6608 5.45898 28.2157 5.45898 28.7765C5.45898 29.3373 5.57317 29.8923 5.7946 30.4075C6.01602 30.9228 6.34003 31.3876 6.7469 31.7735C7.8215 32.8103 9.3119 33.1991 10.697 32.9399C10.8671 33.7202 11.264 34.4627 11.8931 35.0675C12.722 35.8667 13.7993 36.2798 14.8847 36.3095C14.9144 37.3544 15.3437 38.3912 16.1726 39.1904C17.0015 39.9896 18.0815 40.4054 19.1669 40.4324C19.1939 41.4773 19.6259 42.5168 20.4548 43.316C21.2484 44.0691 22.2879 44.5092 23.3809 44.5549C24.474 44.6006 25.5466 44.2487 26.4002 43.5644L27.5801 44.6984C29.3081 46.3643 32.1107 46.3643 33.8387 44.6984C34.6649 43.9046 35.0942 42.8732 35.132 41.831C36.212 41.7986 37.2785 41.3855 38.102 40.5917C38.9255 39.7979 39.3575 38.7638 39.3899 37.7216C40.487 37.6819 41.5313 37.2409 42.3248 36.4823C42.9809 35.8532 43.3859 35.0729 43.5425 34.2575C44.2375 34.3792 44.9513 34.336 45.6266 34.1316C46.3019 33.9271 46.9197 33.5671 47.4305 33.0803C47.8378 32.6943 48.1622 32.2294 48.3838 31.7139C48.6055 31.1984 48.7198 30.6431 48.7198 30.082C48.7198 29.5208 48.6055 28.9656 48.3838 28.4501C48.1622 27.9346 47.8378 27.4696 47.4305 27.0836L45.4865 25.2125L45.8834 23.7275C46.6834 20.6914 46.277 17.4634 44.7494 14.7203C42.4922 10.6541 38.1128 8.14313 33.377 8.14313H30.056L29.6267 8.13233H27.6584ZM34.2815 18.1655L40.775 24.4214L40.7831 24.4268L45.4838 28.9574C45.6365 29.1022 45.7581 29.2766 45.8412 29.47C45.9243 29.6633 45.9672 29.8715 45.9672 30.082C45.9672 30.2924 45.9243 30.5007 45.8412 30.694C45.7581 30.8873 45.6365 31.0617 45.4838 31.2065C45.1681 31.5046 44.7503 31.6707 44.3161 31.6707C43.8818 31.6707 43.464 31.5046 43.1483 31.2065L39.5816 27.7721C39.3202 27.5213 38.9719 27.3813 38.6096 27.3813C38.2473 27.3813 37.899 27.5213 37.6376 27.7721L37.5998 27.8045C37.4732 27.9255 37.3724 28.0709 37.3036 28.232C37.2347 28.393 37.1993 28.5663 37.1993 28.7414C37.1993 28.9166 37.2347 29.0899 37.3036 29.2509C37.3724 29.4119 37.4732 29.5573 37.5998 29.6783L40.3808 32.3567C41.0288 32.9777 41.0288 33.9875 40.3808 34.6112C40.094 34.883 39.7216 35.0464 39.3275 35.0735C38.9333 35.1006 38.5421 34.9897 38.2208 34.7597C37.9527 34.566 37.6252 34.4724 37.2952 34.4951C36.9652 34.5177 36.6536 34.6553 36.4145 34.8839C36.1809 35.1073 36.0398 35.4104 36.0193 35.7331C35.9987 36.0557 36.1003 36.3742 36.3038 36.6254C36.5462 36.929 36.6657 37.3126 36.6387 37.7001C36.6117 38.0876 36.4401 38.4509 36.158 38.7179C35.8672 38.9937 35.4883 39.158 35.0881 39.1817C34.688 39.2054 34.2924 39.0871 33.971 38.8475C33.7042 38.6474 33.3753 38.548 33.0424 38.5667C32.7094 38.5855 32.3938 38.7213 32.1512 38.9501C31.9145 39.1732 31.771 39.4776 31.7494 39.8021C31.7279 40.1267 31.8299 40.4473 32.0351 40.6997C32.2844 41.0069 32.4082 41.397 32.3816 41.7916C32.3551 42.1863 32.1802 42.5563 31.892 42.8273C31.5724 43.1306 31.1486 43.2997 30.708 43.2997C30.2675 43.2997 29.8437 43.1306 29.5241 42.8273L28.355 41.7014L28.7816 41.291C29.1889 40.905 29.5133 40.4401 29.7349 39.9246C29.9566 39.4091 30.0709 38.8538 30.0709 38.2927C30.0709 37.7315 29.9566 37.1763 29.7349 36.6608C29.5133 36.1453 29.1889 35.6803 28.7816 35.2943C27.9741 34.5219 26.9072 34.0789 25.79 34.0523C25.7566 32.9592 25.2939 31.9231 24.5021 31.1687C23.6935 30.3966 22.6255 29.9546 21.5078 29.9294C21.4744 28.8363 21.0117 27.8002 20.2199 27.0458C19.7012 26.5521 19.0724 26.1891 18.3855 25.9867C17.6985 25.7843 16.9733 25.7485 16.2698 25.8821C16.0914 25.0698 15.6749 24.3291 15.0737 23.7545C14.6129 23.3138 14.0634 22.9765 13.4618 22.7651C12.8602 22.5538 12.2205 22.4732 11.5853 22.5287C11.373 20.9466 11.5389 19.3367 12.0692 17.831C12.5996 16.3254 13.4793 14.967 14.6363 13.8671C15.8057 12.7497 17.2078 11.9049 18.7422 11.3932C20.2766 10.8816 21.9052 10.7159 23.5112 10.9079L19.5827 13.7969C19.0801 14.1622 18.6566 14.6255 18.338 15.1589C18.0194 15.6923 17.8122 16.2847 17.729 16.9005C17.6457 17.5162 17.6881 18.1424 17.8535 18.7413C18.019 19.3402 18.3041 19.8993 18.6917 20.3849C19.4759 21.3672 20.6084 22.0095 21.8539 22.1784C23.0994 22.3474 24.3621 22.03 25.3796 21.2921L29.6348 18.1682L34.2815 18.1655ZM21.1811 15.9704L28.1795 10.8323H29.6267C29.7591 10.8311 29.8915 10.8347 30.0236 10.8431H33.377C37.1678 10.8431 40.6265 12.8546 42.3896 16.0325C43.583 18.1817 43.8962 20.6792 43.2725 23.0363L43.2644 23.0633L35.8124 15.8624C35.5598 15.6091 35.217 15.4663 34.8593 15.4655H29.1893C28.9027 15.4661 28.6238 15.5578 28.3928 15.7274L23.7812 19.1132C23.328 19.437 22.7684 19.5756 22.2165 19.5008C21.6645 19.4261 21.162 19.1435 20.8112 18.7109C20.6479 18.5098 20.5275 18.2774 20.4575 18.028C20.3874 17.7786 20.3691 17.5175 20.4038 17.2607C20.4385 17.004 20.5253 16.7571 20.659 16.5352C20.7927 16.3133 20.9703 16.1211 21.1811 15.9704ZM22.3745 39.2174L22.4015 39.1904L24.5021 37.1654L24.5264 37.1438C24.8439 36.856 25.2583 36.6986 25.6868 36.7031C26.1152 36.7076 26.5262 36.8737 26.8376 37.1681C26.9903 37.3129 27.1119 37.4873 27.195 37.6807C27.2781 37.874 27.321 38.0822 27.321 38.2927C27.321 38.5031 27.2781 38.7114 27.195 38.9047C27.1119 39.098 26.9903 39.2724 26.8376 39.4172L24.7343 41.4422C24.4186 41.7403 24.0008 41.9064 23.5665 41.9064C23.1323 41.9064 22.7145 41.7403 22.3988 41.4422C22.2481 41.2996 22.1276 41.1281 22.0444 40.938C21.9612 40.7479 21.9171 40.543 21.9145 40.3355C21.912 40.128 21.9512 39.9222 22.0297 39.7301C22.1083 39.538 22.2273 39.3637 22.3745 39.2174ZM22.5797 35.27L22.5527 35.2943L20.4521 37.3193L20.4251 37.3436C20.1074 37.6303 19.6934 37.7867 19.2656 37.7817C18.8377 37.7767 18.4275 37.6107 18.1166 37.3166C17.9656 37.1733 17.845 37.0011 17.762 36.8102C17.6791 36.6193 17.6354 36.4137 17.6336 36.2055C17.6319 35.9974 17.672 35.791 17.7518 35.5988C17.8315 35.4065 17.9492 35.2322 18.0977 35.0864L18.1166 35.0675L20.2172 33.0425L20.2361 33.0236C20.5532 32.7335 20.9684 32.5742 21.3981 32.5777C21.8279 32.5812 22.2404 32.7473 22.5527 33.0425C22.7038 33.1852 22.8247 33.3568 22.9081 33.5472C22.9915 33.7375 23.0358 33.9427 23.0383 34.1506C23.0409 34.3584 23.0016 34.5646 22.9228 34.7569C22.844 34.9492 22.7273 35.1237 22.5797 35.27ZM18.2732 31.1687L16.1699 33.1937L16.151 33.2126C15.8339 33.5027 15.4187 33.662 14.989 33.6585C14.5592 33.655 14.1467 33.4889 13.8344 33.1937C13.6817 33.0489 13.5601 32.8745 13.477 32.6812C13.3939 32.4879 13.351 32.2796 13.351 32.0692C13.351 31.8587 13.3939 31.6505 13.477 31.4572C13.5601 31.2638 13.6817 31.0894 13.8344 30.9446L15.935 28.9196C16.2509 28.6207 16.6692 28.4542 17.1041 28.4542C17.539 28.4542 17.9573 28.6207 18.2732 28.9196C18.4246 29.0629 18.5455 29.2353 18.6288 29.4265C18.712 29.6176 18.7558 29.8236 18.7576 30.0321C18.7593 30.2405 18.719 30.4472 18.639 30.6397C18.5591 30.8323 18.4411 31.0067 18.2921 31.1525L18.2732 31.1687ZM13.127 27.8774L11.0264 29.9024C10.7105 30.2013 10.2922 30.3679 9.8573 30.3679C9.42243 30.3679 9.00407 30.2013 8.6882 29.9024C8.53507 29.7576 8.41311 29.583 8.32975 29.3894C8.24639 29.1959 8.2034 28.9873 8.2034 28.7765C8.2034 28.5658 8.24639 28.3572 8.32975 28.1636C8.41311 27.97 8.53507 27.7955 8.6882 27.6506L10.7915 25.6256C11.1072 25.3275 11.525 25.1615 11.9592 25.1615C12.3935 25.1615 12.8113 25.3275 13.127 25.6256C13.2801 25.7705 13.4021 25.945 13.4854 26.1386C13.5688 26.3322 13.6118 26.5408 13.6118 26.7515C13.6118 26.9623 13.5688 27.1709 13.4854 27.3644C13.4021 27.558 13.2801 27.7326 13.127 27.8774Z" fill="white"/>
</svg>
