<svg width="55" height="55" viewBox="0 0 55 55" fill="none" xmlns="http://www.w3.org/2000/svg">
<path fill-rule="evenodd" clip-rule="evenodd" d="M29.2187 5.5C29.2187 5.04416 29.0377 4.60699 28.7153 4.28466C28.393 3.96233 27.9558 3.78125 27.5 3.78125C27.0442 3.78125 26.607 3.96233 26.2847 4.28466C25.9623 4.60699 25.7812 5.04416 25.7812 5.5V6.53125H21.3125C20.8567 6.53125 20.4195 6.71233 20.0972 7.03466C19.7748 7.35699 19.5937 7.79416 19.5937 8.25V10.6562H16.5C16.0442 10.6562 15.607 10.8373 15.2847 11.1597C14.9623 11.482 14.7812 11.9192 14.7812 12.375V16.5C14.7812 16.8962 14.918 17.2803 15.1686 17.5872C15.4191 17.8942 15.768 18.1051 16.1562 18.1844V47.7812H15.8125C15.3567 47.7812 14.9195 47.9623 14.5972 48.2847C14.2748 48.607 14.0938 49.0442 14.0938 49.5C14.0938 49.9558 14.2748 50.393 14.5972 50.7153C14.9195 51.0377 15.3567 51.2188 15.8125 51.2188H39.1875C39.6433 51.2188 40.0805 51.0377 40.4028 50.7153C40.7252 50.393 40.9062 49.9558 40.9062 49.5C40.9062 49.0442 40.7252 48.607 40.4028 48.2847C40.0805 47.9623 39.6433 47.7812 39.1875 47.7812H38.8437V18.1844C39.232 18.1051 39.5809 17.8942 39.8314 17.5872C40.082 17.2803 40.2188 16.8962 40.2187 16.5V12.375C40.2187 11.9192 40.0377 11.482 39.7153 11.1597C39.393 10.8373 38.9558 10.6562 38.5 10.6562H35.4062V8.25C35.4062 7.79416 35.2252 7.35699 34.9028 7.03466C34.5805 6.71233 34.1433 6.53125 33.6875 6.53125H29.2187V5.5ZM23.375 46.75C23.375 46.3853 23.5199 46.0356 23.7777 45.7777C24.0356 45.5199 24.3853 45.375 24.75 45.375H30.25C30.6147 45.375 30.9644 45.5199 31.2223 45.7777C31.4801 46.0356 31.625 46.3853 31.625 46.75V49.5H23.375V46.75ZM24.0625 20.625C24.4272 20.625 24.7769 20.7699 25.0348 21.0277C25.2926 21.2856 25.4375 21.6353 25.4375 22V23.375C25.4375 23.7397 25.2926 24.0894 25.0348 24.3473C24.7769 24.6051 24.4272 24.75 24.0625 24.75H22.6875C22.3228 24.75 21.9731 24.6051 21.7152 24.3473C21.4574 24.0894 21.3125 23.7397 21.3125 23.375V22C21.3125 21.6353 21.4574 21.2856 21.7152 21.0277C21.9731 20.7699 22.3228 20.625 22.6875 20.625H24.0625ZM24.0625 28.875C24.4272 28.875 24.7769 29.0199 25.0348 29.2777C25.2926 29.5356 25.4375 29.8853 25.4375 30.25V31.625C25.4375 31.9897 25.2926 32.3394 25.0348 32.5973C24.7769 32.8551 24.4272 33 24.0625 33H22.6875C22.3228 33 21.9731 32.8551 21.7152 32.5973C21.4574 32.3394 21.3125 31.9897 21.3125 31.625V30.25C21.3125 29.8853 21.4574 29.5356 21.7152 29.2777C21.9731 29.0199 22.3228 28.875 22.6875 28.875H24.0625ZM22.6875 37.125C22.3228 37.125 21.9731 37.2699 21.7152 37.5277C21.4574 37.7856 21.3125 38.1353 21.3125 38.5V39.875C21.3125 40.2397 21.4574 40.5894 21.7152 40.8473C21.9731 41.1051 22.3228 41.25 22.6875 41.25H24.0625C24.4272 41.25 24.7769 41.1051 25.0348 40.8473C25.2926 40.5894 25.4375 40.2397 25.4375 39.875V38.5C25.4375 38.1353 25.2926 37.7856 25.0348 37.5277C24.7769 37.2699 24.4272 37.125 24.0625 37.125H22.6875ZM32.3125 20.625C32.6772 20.625 33.0269 20.7699 33.2848 21.0277C33.5426 21.2856 33.6875 21.6353 33.6875 22V23.375C33.6875 23.7397 33.5426 24.0894 33.2848 24.3473C33.0269 24.6051 32.6772 24.75 32.3125 24.75H30.9375C30.5728 24.75 30.2231 24.6051 29.9652 24.3473C29.7074 24.0894 29.5625 23.7397 29.5625 23.375V22C29.5625 21.6353 29.7074 21.2856 29.9652 21.0277C30.2231 20.7699 30.5728 20.625 30.9375 20.625H32.3125ZM30.9375 28.875C30.5728 28.875 30.2231 29.0199 29.9652 29.2777C29.7074 29.5356 29.5625 29.8853 29.5625 30.25V31.625C29.5625 31.9897 29.7074 32.3394 29.9652 32.5973C30.2231 32.8551 30.5728 33 30.9375 33H32.3125C32.6772 33 33.0269 32.8551 33.2848 32.5973C33.5426 32.3394 33.6875 31.9897 33.6875 31.625V30.25C33.6875 29.8853 33.5426 29.5356 33.2848 29.2777C33.0269 29.0199 32.6772 28.875 32.3125 28.875H30.9375ZM32.3125 37.125C32.6772 37.125 33.0269 37.2699 33.2848 37.5277C33.5426 37.7856 33.6875 38.1353 33.6875 38.5V39.875C33.6875 40.2397 33.5426 40.5894 33.2848 40.8473C33.0269 41.1051 32.6772 41.25 32.3125 41.25H30.9375C30.5728 41.25 30.2231 41.1051 29.9652 40.8473C29.7074 40.5894 29.5625 40.2397 29.5625 39.875V38.5C29.5625 38.1353 29.7074 37.7856 29.9652 37.5277C30.2231 37.2699 30.5728 37.125 30.9375 37.125H32.3125Z" fill="white"/>
</svg>
